<mxfile host="app.diagrams.net" modified="2023-09-11T12:36:03.209Z" agent="Mozilla/5.0 (X11; Linux x86_64) AppleWebKit/537.36 (KHTML, like Gecko) Chrome/116.0.0.0 Safari/537.36" etag="Up_kXDwmBM41jUtguOo7" version="21.7.4" type="device">
  <diagram id="-5zZWQhgF_jnTLmELXEc" name="Page-1">
    <mxGraphModel dx="1251" dy="735" grid="1" gridSize="10" guides="1" tooltips="1" connect="1" arrows="1" fold="1" page="1" pageScale="1" pageWidth="827" pageHeight="1169" math="0" shadow="0">
      <root>
        <mxCell id="0" />
        <mxCell id="1" parent="0" />
        <mxCell id="2eIw2tC5cr2vkS_TQOaG-3" value="LoginScreen" style="swimlane;fontStyle=0;childLayout=stackLayout;horizontal=1;startSize=30;horizontalStack=0;resizeParent=1;resizeParentMax=0;resizeLast=0;collapsible=1;marginBottom=0;whiteSpace=wrap;html=1;" parent="1" vertex="1">
          <mxGeometry x="330" y="120" width="140" height="90" as="geometry" />
        </mxCell>
        <mxCell id="2eIw2tC5cr2vkS_TQOaG-4" value="Email" style="text;strokeColor=none;fillColor=none;align=left;verticalAlign=middle;spacingLeft=4;spacingRight=4;overflow=hidden;points=[[0,0.5],[1,0.5]];portConstraint=eastwest;rotatable=0;whiteSpace=wrap;html=1;" parent="2eIw2tC5cr2vkS_TQOaG-3" vertex="1">
          <mxGeometry y="30" width="140" height="30" as="geometry" />
        </mxCell>
        <mxCell id="2eIw2tC5cr2vkS_TQOaG-5" value="Password" style="text;strokeColor=none;fillColor=none;align=left;verticalAlign=middle;spacingLeft=4;spacingRight=4;overflow=hidden;points=[[0,0.5],[1,0.5]];portConstraint=eastwest;rotatable=0;whiteSpace=wrap;html=1;" parent="2eIw2tC5cr2vkS_TQOaG-3" vertex="1">
          <mxGeometry y="60" width="140" height="30" as="geometry" />
        </mxCell>
        <mxCell id="2eIw2tC5cr2vkS_TQOaG-7" value="" style="endArrow=classic;html=1;rounded=0;exitX=0.486;exitY=1.033;exitDx=0;exitDy=0;exitPerimeter=0;" parent="1" source="2eIw2tC5cr2vkS_TQOaG-5" edge="1">
          <mxGeometry width="50" height="50" relative="1" as="geometry">
            <mxPoint x="350" y="370" as="sourcePoint" />
            <mxPoint x="400" y="320" as="targetPoint" />
          </mxGeometry>
        </mxCell>
        <mxCell id="2eIw2tC5cr2vkS_TQOaG-8" value="Show Main Page" style="swimlane;fontStyle=0;childLayout=stackLayout;horizontal=1;startSize=26;fillColor=none;horizontalStack=0;resizeParent=1;resizeParentMax=0;resizeLast=0;collapsible=1;marginBottom=0;whiteSpace=wrap;html=1;" parent="1" vertex="1">
          <mxGeometry x="330" y="320" width="140" height="52" as="geometry" />
        </mxCell>
        <mxCell id="2eIw2tC5cr2vkS_TQOaG-9" value="Show Bookings" style="text;strokeColor=none;fillColor=none;align=left;verticalAlign=top;spacingLeft=4;spacingRight=4;overflow=hidden;rotatable=0;points=[[0,0.5],[1,0.5]];portConstraint=eastwest;whiteSpace=wrap;html=1;" parent="2eIw2tC5cr2vkS_TQOaG-8" vertex="1">
          <mxGeometry y="26" width="140" height="26" as="geometry" />
        </mxCell>
        <mxCell id="JKDqSYSZef4iYO35E-K3-2" value="MakeBooking" style="swimlane;fontStyle=0;childLayout=stackLayout;horizontal=1;startSize=30;horizontalStack=0;resizeParent=1;resizeParentMax=0;resizeLast=0;collapsible=1;marginBottom=0;whiteSpace=wrap;html=1;" vertex="1" parent="1">
          <mxGeometry x="600" y="282" width="140" height="90" as="geometry" />
        </mxCell>
        <mxCell id="JKDqSYSZef4iYO35E-K3-4" value="Make booking" style="text;strokeColor=none;fillColor=none;align=left;verticalAlign=middle;spacingLeft=4;spacingRight=4;overflow=hidden;points=[[0,0.5],[1,0.5]];portConstraint=eastwest;rotatable=0;whiteSpace=wrap;html=1;" vertex="1" parent="JKDqSYSZef4iYO35E-K3-2">
          <mxGeometry y="30" width="140" height="30" as="geometry" />
        </mxCell>
        <mxCell id="JKDqSYSZef4iYO35E-K3-5" value="Make add&amp;nbsp;participant" style="text;strokeColor=none;fillColor=none;align=left;verticalAlign=middle;spacingLeft=4;spacingRight=4;overflow=hidden;points=[[0,0.5],[1,0.5]];portConstraint=eastwest;rotatable=0;whiteSpace=wrap;html=1;" vertex="1" parent="JKDqSYSZef4iYO35E-K3-2">
          <mxGeometry y="60" width="140" height="30" as="geometry" />
        </mxCell>
        <mxCell id="JKDqSYSZef4iYO35E-K3-8" value="Button: new booking" style="text;html=1;strokeColor=none;fillColor=none;align=center;verticalAlign=middle;whiteSpace=wrap;rounded=0;" vertex="1" parent="1">
          <mxGeometry x="470" y="440" width="130" height="30" as="geometry" />
        </mxCell>
        <mxCell id="JKDqSYSZef4iYO35E-K3-10" value="" style="endArrow=classic;html=1;rounded=0;exitX=0.5;exitY=1.154;exitDx=0;exitDy=0;exitPerimeter=0;entryX=0.514;entryY=1.167;entryDx=0;entryDy=0;entryPerimeter=0;" edge="1" parent="1">
          <mxGeometry width="50" height="50" relative="1" as="geometry">
            <mxPoint x="399" y="372.0039999999999" as="sourcePoint" />
            <mxPoint x="670.96" y="373.01" as="targetPoint" />
            <Array as="points">
              <mxPoint x="399" y="436" />
              <mxPoint x="671" y="436" />
            </Array>
          </mxGeometry>
        </mxCell>
        <mxCell id="JKDqSYSZef4iYO35E-K3-12" value="Button: show bookings" style="text;html=1;strokeColor=none;fillColor=none;align=center;verticalAlign=middle;whiteSpace=wrap;rounded=0;" vertex="1" parent="1">
          <mxGeometry x="482.5" y="300" width="105" height="30" as="geometry" />
        </mxCell>
        <mxCell id="JKDqSYSZef4iYO35E-K3-13" value="" style="endArrow=classic;html=1;rounded=0;entryX=1.021;entryY=0.115;entryDx=0;entryDy=0;entryPerimeter=0;exitX=-0.014;exitY=0.2;exitDx=0;exitDy=0;exitPerimeter=0;" edge="1" parent="1" source="JKDqSYSZef4iYO35E-K3-5" target="2eIw2tC5cr2vkS_TQOaG-9">
          <mxGeometry width="50" height="50" relative="1" as="geometry">
            <mxPoint x="520" y="400" as="sourcePoint" />
            <mxPoint x="570" y="350" as="targetPoint" />
          </mxGeometry>
        </mxCell>
        <mxCell id="JKDqSYSZef4iYO35E-K3-14" value="Button:login" style="text;html=1;strokeColor=none;fillColor=none;align=center;verticalAlign=middle;whiteSpace=wrap;rounded=0;" vertex="1" parent="1">
          <mxGeometry x="400" y="240" width="86" height="30" as="geometry" />
        </mxCell>
      </root>
    </mxGraphModel>
  </diagram>
</mxfile>
